<?xml version="1.0" standalone="no"?>
<!DOCTYPE svg PUBLIC "-//W3C//DTD SVG 20010904//EN"
 "http://www.w3.org/TR/2001/REC-SVG-20010904/DTD/svg10.dtd">
<svg version="1.0" xmlns="http://www.w3.org/2000/svg"
 width="512.000000pt" height="512.000000pt" viewBox="0 0 512.000000 512.000000"
 preserveAspectRatio="xMidYMid meet">
<metadata>
Created for YFS Product Management System
</metadata>
<g transform="translate(0.000000,512.000000) scale(0.100000,-0.100000)"
fill="#000000" stroke="none">
<path d="M2300 4800 c-47 -14 -100 -67 -114 -114 -19 -62 -19 -108 0 -170 14
-47 67 -100 114 -114 62 -19 108 -19 170 0 47 14 100 67 114 114 19 62 19 108
0 170 -14 47 -67 100 -114 114 -62 19 -108 19 -170 0z"/>
<path d="M1200 3600 l0 -400 400 0 400 0 0 400 0 400 -400 0 -400 0 0 -400z"/>
<path d="M2800 3600 l0 -400 400 0 400 0 0 400 0 400 -400 0 -400 0 0 -400z"/>
<path d="M400 2400 l0 -400 400 0 400 0 0 400 0 400 -400 0 -400 0 0 -400z"/>
<path d="M2000 2400 l0 -400 400 0 400 0 0 400 0 400 -400 0 -400 0 0 -400z"/>
<path d="M3600 2400 l0 -400 400 0 400 0 0 400 0 400 -400 0 -400 0 0 -400z"/>
<path d="M1200 1200 l0 -400 400 0 400 0 0 400 0 400 -400 0 -400 0 0 -400z"/>
<path d="M2800 1200 l0 -400 400 0 400 0 0 400 0 400 -400 0 -400 0 0 -400z"/>
</g>
</svg>